<svg width="60" height="60" viewBox="0 0 60 60" fill="none" xmlns="http://www.w3.org/2000/svg">
<path d="M7.5 47.5C6.125 47.5 4.9475 47.01 3.9675 46.03C2.9875 45.05 2.49834 43.8733 2.5 42.5V17.5C2.5 16.125 2.99 14.9475 3.97 13.9675C4.95 12.9875 6.12667 12.4983 7.5 12.5H32.5C33.875 12.5 35.0525 12.99 36.0325 13.97C37.0125 14.95 37.5017 16.1267 37.5 17.5V42.5C37.5 43.875 37.01 45.0525 36.03 46.0325C35.05 47.0125 33.8733 47.5017 32.5 47.5H7.5ZM7.5 42.5H32.5V17.5H7.5V42.5ZM45 47.5C44.2917 47.5 43.6975 47.26 43.2175 46.78C42.7375 46.3 42.4983 45.7067 42.5 45V15C42.5 14.2917 42.74 13.6975 43.22 13.2175C43.7 12.7375 44.2933 12.4983 45 12.5C45.7083 12.5 46.3025 12.74 46.7825 13.22C47.2625 13.7 47.5017 14.2933 47.5 15V45C47.5 45.7083 47.26 46.3025 46.78 46.7825C46.3 47.2625 45.7067 47.5017 45 47.5ZM55 47.5C54.2917 47.5 53.6975 47.26 53.2175 46.78C52.7375 46.3 52.4983 45.7067 52.5 45V15C52.5 14.2917 52.74 13.6975 53.22 13.2175C53.7 12.7375 54.2933 12.4983 55 12.5C55.7083 12.5 56.3025 12.74 56.7825 13.22C57.2625 13.7 57.5017 14.2933 57.5 15V45C57.5 45.7083 57.26 46.3025 56.78 46.7825C56.3 47.2625 55.7067 47.5017 55 47.5Z" fill="#94E084"/>
</svg>
