<svg width="60" height="60" viewBox="0 0 60 60" fill="none" xmlns="http://www.w3.org/2000/svg">
<path d="M35.625 53.5C34.6667 54.4583 33.4792 54.9375 32.0625 54.9375C30.6458 54.9375 29.4583 54.4583 28.5 53.5L6.50001 31.5C6.04168 31.0417 5.67668 30.5 5.40502 29.875C5.13335 29.25 4.99835 28.5833 5.00002 27.875V10C5.00002 8.625 5.49002 7.4475 6.47002 6.4675C7.45002 5.4875 8.62668 4.99834 10 5H27.875C28.5833 5 29.25 5.13584 29.875 5.4075C30.5 5.67917 31.0417 6.04334 31.5 6.5L53.5 28.5625C54.4583 29.5208 54.9375 30.6983 54.9375 32.095C54.9375 33.4917 54.4583 34.6683 53.5 35.625L35.625 53.5ZM32.0625 50L49.9375 32.125L27.875 10H10V27.875L32.0625 50ZM16.25 20C17.2917 20 18.1775 19.635 18.9075 18.905C19.6375 18.175 20.0017 17.29 20 16.25C20 15.2083 19.635 14.3225 18.905 13.5925C18.175 12.8625 17.29 12.4983 16.25 12.5C15.2083 12.5 14.3225 12.865 13.5925 13.595C12.8625 14.325 12.4983 15.21 12.5 16.25C12.5 17.2917 12.865 18.1775 13.595 18.9075C14.325 19.6375 15.21 20.0017 16.25 20Z" fill="#94E084"/>
</svg>
