<svg width="64" height="64" viewBox="0 0 64 64" fill="none" xmlns="http://www.w3.org/2000/svg">
<path d="M31.9999 48C36.4444 48 40.2221 46.4445 43.3333 43.3334C46.4444 40.2223 47.9999 36.4445 47.9999 32C47.9999 28.1334 46.7661 24.7334 44.2986 21.8C41.831 18.8667 38.7093 17.0223 34.9333 16.2667C34.1333 16.1778 33.4444 16.4 32.8666 16.9334C32.2888 17.4667 31.9999 18.1334 31.9999 18.9334V32L22.7999 41.2C22.2221 41.7778 21.9555 42.4667 21.9999 43.2667C22.0444 44.0667 22.3777 44.7112 22.9999 45.2C24.2888 46.2223 25.711 46.9449 27.2666 47.368C28.8221 47.7912 30.3999 48.0018 31.9999 48ZM31.9999 58.6667C28.311 58.6667 24.8444 57.9663 21.5999 56.5654C18.3555 55.1645 15.5333 53.2649 13.1333 50.8667C10.7333 48.4667 8.8337 45.6445 7.43459 42.4C6.03547 39.1556 5.33503 35.6889 5.33325 32C5.33325 28.3112 6.0337 24.8445 7.43459 21.6C8.83547 18.3556 10.735 15.5334 13.1333 13.1334C15.5333 10.7334 18.3555 8.83382 21.5999 7.43471C24.8444 6.0356 28.311 5.33515 31.9999 5.33337C35.6888 5.33337 39.1555 6.03382 42.3999 7.43471C45.6444 8.8356 48.4666 10.7352 50.8666 13.1334C53.2666 15.5334 55.167 18.3556 56.5679 21.6C57.9688 24.8445 58.6684 28.3112 58.6666 32C58.6666 35.6889 57.9661 39.1556 56.5653 42.4C55.1644 45.6445 53.2648 48.4667 50.8666 50.8667C48.4666 53.2667 45.6444 55.1672 42.3999 56.568C39.1555 57.9689 35.6888 58.6685 31.9999 58.6667ZM31.9999 53.3334C37.9555 53.3334 42.9999 51.2667 47.1333 47.1334C51.2666 43 53.3333 37.9556 53.3333 32C53.3333 26.0445 51.2666 21 47.1333 16.8667C42.9999 12.7334 37.9555 10.6667 31.9999 10.6667C26.0444 10.6667 20.9999 12.7334 16.8666 16.8667C12.7333 21 10.6666 26.0445 10.6666 32C10.6666 37.9556 12.7333 43 16.8666 47.1334C20.9999 51.2667 26.0444 53.3334 31.9999 53.3334Z" fill="#94E084"/>
</svg>
