<svg width="60" height="60" viewBox="0 0 60 60" fill="none" xmlns="http://www.w3.org/2000/svg">
<path d="M23.375 42C18.0417 41.2917 13.6458 39.8333 10.1875 37.625C6.72917 35.4167 5 32.875 5 30C5 26.5417 7.40667 23.5933 12.22 21.155C17.0333 18.7167 22.96 17.4983 30 17.5C37.0417 17.5 42.9692 18.7192 47.7825 21.1575C52.5958 23.5958 55.0017 26.5433 55 30C55 32.3333 53.8642 34.4483 51.5925 36.345C49.3208 38.2417 46.3108 39.7308 42.5625 40.8125C41.8958 41.0208 41.3025 40.9267 40.7825 40.53C40.2625 40.1333 40.0017 39.6025 40 38.9375C40 38.1875 40.2192 37.5208 40.6575 36.9375C41.0958 36.3542 41.6683 35.9375 42.375 35.6875C44.875 34.8542 46.7708 33.9067 48.0625 32.845C49.3542 31.7833 50 30.835 50 30C50 28.6667 48.2183 27.0833 44.655 25.25C41.0917 23.4167 36.2067 22.5 30 22.5C23.7917 22.5 18.9058 23.4167 15.3425 25.25C11.7792 27.0833 9.99833 28.6667 10 30C10 31 11.0625 32.1983 13.1875 33.595C15.3125 34.9917 18.3333 36.0433 22.25 36.75L20.75 35.25C20.2917 34.7917 20.0625 34.2083 20.0625 33.5C20.0625 32.7917 20.2917 32.2083 20.75 31.75C21.2083 31.2917 21.7917 31.0625 22.5 31.0625C23.2083 31.0625 23.7917 31.2917 24.25 31.75L30.75 38.25C31.25 38.75 31.5 39.3333 31.5 40C31.5 40.6667 31.25 41.25 30.75 41.75L24.25 48.25C23.7917 48.7083 23.2192 48.9483 22.5325 48.97C21.8458 48.9917 21.2517 48.7517 20.75 48.25C20.2917 47.7917 20.0517 47.2183 20.03 46.53C20.0083 45.8417 20.2275 45.2483 20.6875 44.75L23.375 42Z" fill="#94E084"/>
</svg>
