<svg width="60" height="60" viewBox="0 0 60 60" fill="none" xmlns="http://www.w3.org/2000/svg">
<path d="M30 43.75C31.4167 43.75 32.75 43.4892 34 42.9675C35.25 42.4458 36.4167 41.7067 37.5 40.75C37.875 40.4167 38.0625 39.9792 38.0625 39.4375C38.0625 38.8958 37.875 38.4583 37.5 38.125C37.125 37.7917 36.6775 37.625 36.1575 37.625C35.6375 37.625 35.1683 37.7917 34.75 38.125C34.0417 38.6667 33.2917 39.1042 32.5 39.4375C31.7083 39.7708 30.875 39.9375 30 39.9375C29.125 39.9375 28.2917 39.7708 27.5 39.4375C26.7083 39.1042 25.9583 38.6667 25.25 38.125C24.8333 37.7917 24.3642 37.625 23.8425 37.625C23.3208 37.625 22.8733 37.7917 22.5 38.125C22.125 38.4583 21.9375 38.8958 21.9375 39.4375C21.9375 39.9792 22.125 40.4167 22.5 40.75C23.5833 41.6667 24.75 42.3958 26 42.9375C27.25 43.4792 28.5833 43.75 30 43.75ZM30 55C26.5417 55 23.2917 54.3433 20.25 53.03C17.2083 51.7167 14.5625 49.9358 12.3125 47.6875C10.0625 45.4375 8.28167 42.7917 6.97 39.75C5.65833 36.7083 5.00167 33.4583 5 30C5 26.5417 5.65667 23.2917 6.97 20.25C8.28333 17.2083 10.0642 14.5625 12.3125 12.3125C14.5625 10.0625 17.2083 8.28167 20.25 6.97C23.2917 5.65833 26.5417 5.00167 30 5C33.4583 5 36.7083 5.65667 39.75 6.97C42.7917 8.28333 45.4375 10.0642 47.6875 12.3125C49.9375 14.5625 51.7192 17.2083 53.0325 20.25C54.3458 23.2917 55.0017 26.5417 55 30C55 33.4583 54.3433 36.7083 53.03 39.75C51.7167 42.7917 49.9358 45.4375 47.6875 47.6875C45.4375 49.9375 42.7917 51.7192 39.75 53.0325C36.7083 54.3458 33.4583 55.0017 30 55ZM30 50C35.5833 50 40.3125 48.0625 44.1875 44.1875C48.0625 40.3125 50 35.5833 50 30C50 24.4167 48.0625 19.6875 44.1875 15.8125C40.3125 11.9375 35.5833 10 30 10C24.4167 10 19.6875 11.9375 15.8125 15.8125C11.9375 19.6875 10 24.4167 10 30C10 35.5833 11.9375 40.3125 15.8125 44.1875C19.6875 48.0625 24.4167 50 30 50ZM21.25 30C22.5833 30 23.7817 29.5833 24.845 28.75C25.9083 27.9167 26.7308 26.8958 27.3125 25.6875C27.5208 25.1458 27.5317 24.6142 27.345 24.0925C27.1583 23.5708 26.7933 23.2483 26.25 23.125C25.7917 23 25.3333 23.0525 24.875 23.2825C24.4167 23.5125 24.0833 23.8558 23.875 24.3125C23.5833 24.8542 23.2183 25.3125 22.78 25.6875C22.3417 26.0625 21.8317 26.25 21.25 26.25C20.6667 26.25 20.1458 26.0525 19.6875 25.6575C19.2292 25.2625 18.875 24.7933 18.625 24.25C18.4167 23.7917 18.0833 23.4583 17.625 23.25C17.1667 23.0417 16.7083 23 16.25 23.125C15.7083 23.25 15.3433 23.5733 15.155 24.095C14.9667 24.6167 14.9983 25.1475 15.25 25.6875C15.75 26.9375 16.5417 27.9692 17.625 28.7825C18.7083 29.5958 19.9167 30.0017 21.25 30ZM38.75 30C40.0833 30 41.2817 29.5833 42.345 28.75C43.4083 27.9167 44.2308 26.8958 44.8125 25.6875C45.0208 25.1458 45.0317 24.6142 44.845 24.0925C44.6583 23.5708 44.2933 23.2483 43.75 23.125C43.2917 23 42.8333 23.0525 42.375 23.2825C41.9167 23.5125 41.5833 23.8558 41.375 24.3125C41.0833 24.8542 40.7183 25.3125 40.28 25.6875C39.8417 26.0625 39.3317 26.25 38.75 26.25C38.1667 26.25 37.6458 26.0525 37.1875 25.6575C36.7292 25.2625 36.375 24.7933 36.125 24.25C35.9167 23.7917 35.5833 23.4583 35.125 23.25C34.6667 23.0417 34.2083 23 33.75 23.125C33.2083 23.25 32.8433 23.5733 32.655 24.095C32.4667 24.6167 32.4983 25.1475 32.75 25.6875C33.25 26.9375 34.0417 27.9692 35.125 28.7825C36.2083 29.5958 37.4167 30.0017 38.75 30Z" fill="#94E084"/>
</svg>
