<svg width="404" height="360" viewBox="0 0 404 360" fill="none" xmlns="http://www.w3.org/2000/svg">
<path d="M6.39517e-06 155.526C6.61742e-06 160.61 4.12168 164.747 9.22113 164.747L175.307 164.747C179.112 164.747 182.482 162.295 183.655 158.67C192.876 130.45 219.773 110.232 251.332 111.361C286.592 112.609 315.805 141.476 317.459 176.706C319.31 216.147 287.871 248.715 248.835 248.715C218.344 248.715 192.591 228.798 183.64 201.3C182.467 197.705 179.097 195.283 175.307 195.283L9.22113 195.283C4.13673 195.283 8.3132e-06 199.405 8.5361e-06 204.504L1.493e-05 350.779C1.51529e-05 355.878 4.12169 360 9.22114 360H219.502C253.243 360 284.321 353.261 311.864 339.963C339.707 326.545 362.121 306.223 378.457 279.582C394.778 253.002 403.052 219.442 403.052 179.835C403.052 140.227 394.718 106.983 378.307 80.3878C361.85 53.7774 339.452 33.4548 311.728 20.0218C284.275 6.73914 253.242 2.90427e-05 219.502 3.05176e-05L9.22112 3.97092e-05C4.13672 3.99315e-05 -2.22904e-07 4.12172 0 9.22117L6.39517e-06 155.526Z" fill="#E4E7E0"/>
</svg>
