<?xml version="1.0" encoding="UTF-8"?><svg id="Layer_2" xmlns="http://www.w3.org/2000/svg" viewBox="0 0 882.77 197.31"><defs><style>.cls-1{fill:#141710;}</style></defs><g id="Layer_1-2"><path class="cls-1" d="m146,0c-4.11,0-7.62,1.39-10.45,4.12-2.84,2.75-4.28,6.32-4.28,10.62v113.1c0,8.25-2.12,15.63-6.3,21.94-4.21,6.35-10.12,11.4-17.55,15-7.51,3.63-16.28,5.48-26.07,5.48s-19.24-1.85-27.07-5.49c-7.76-3.61-13.91-8.66-18.27-15.02-4.33-6.3-6.52-13.67-6.52-21.91V14.74c0-4.28-1.39-7.84-4.14-10.6C22.58,1.39,19.02,0,14.74,0S7.11,1.39,4.29,4.12C1.44,6.86,0,10.44,0,14.74v113.1c0,13.44,3.5,25.57,10.4,36.06,6.89,10.46,16.59,18.74,28.84,24.61,12.18,5.84,26.35,8.8,42.1,8.8s29.04-2.96,40.91-8.82c11.92-5.88,21.38-14.16,28.1-24.62,6.74-10.47,10.15-22.6,10.15-36.03V14.74c0-4.27-1.34-7.82-3.99-10.57-2.67-2.76-6.21-4.17-10.5-4.17Z"/><path class="cls-1" d="m295.88,64.87c-9.67-6.09-20.73-9.17-32.87-9.17-9.81,0-18.97,2.07-27.23,6.15-6.52,3.23-12.35,7.42-17.37,12.49V14.49c0-4.28-1.35-7.81-4.02-10.48-2.67-2.66-6.19-4.01-10.47-4.01s-7.59,1.34-10.33,3.99c-2.76,2.67-4.17,6.2-4.17,10.5v110.47c.16,13.06,3.27,24.98,9.24,35.43,5.97,10.45,14.22,18.83,24.51,24.88,10.29,6.07,22.07,9.14,35,9.14s24.95-3.07,35.24-9.14c10.28-6.05,18.57-14.41,24.62-24.87,6.06-10.46,9.13-22.39,9.13-35.47s-2.81-24.92-8.37-35.29c-5.56-10.37-13.27-18.71-22.91-24.77Zm-16.8,97.83c-6.08,3.73-13.12,5.61-20.92,5.61s-14.65-1.89-20.81-5.62c-6.17-3.74-11.09-8.96-14.6-15.53-3.53-6.59-5.32-14.07-5.32-22.24s1.79-15.79,5.31-22.22c3.51-6.41,8.42-11.56,14.61-15.3,6.17-3.73,13.17-5.62,20.81-5.62s14.83,1.89,20.92,5.61c6.12,3.76,11.04,8.91,14.63,15.33,3.6,6.43,5.42,13.9,5.42,22.2s-1.83,15.63-5.43,22.22c-3.59,6.57-8.51,11.8-14.62,15.55Z"/><path class="cls-1" d="m361.22,56.67c-4.12,0-7.59,1.34-10.33,4-2.76,2.67-4.17,6.2-4.17,10.5v107.77c0,4.12,1.39,7.61,4.14,10.36,2.74,2.75,6.22,4.14,10.36,4.14s7.83-1.4,10.51-4.17c2.65-2.74,3.99-6.22,3.99-10.33v-107.77c0-4.28-1.35-7.8-4.01-10.47-2.67-2.67-6.2-4.02-10.48-4.02Z"/><path class="cls-1" d="m361.22,3.14c-4.93,0-9.22,1.8-12.78,5.35-3.55,3.55-5.35,7.84-5.35,12.78s1.8,9.23,5.35,12.78c3.55,3.55,7.84,5.35,12.78,5.35s9.23-1.8,12.78-5.35c3.55-3.55,5.35-7.85,5.35-12.78s-1.8-9.23-5.35-12.78-7.85-5.35-12.78-5.35Z"/><path class="cls-1" d="m571.56,61.8c-7.4-4.21-15.99-6.34-25.52-6.34-10.81,0-20.57,2.37-29.01,7.05-5.11,2.83-9.56,6.35-13.32,10.52-3.53-4.64-7.81-8.4-12.8-11.23-7.41-4.21-16-6.34-25.52-6.34s-18.8,2.39-26.54,7.1c-2.06,1.25-4.01,2.64-5.84,4.17-.64-2.23-1.77-4.17-3.4-5.79-2.67-2.67-6.2-4.02-10.48-4.02s-7.59,1.34-10.33,3.99c-2.76,2.67-4.17,6.2-4.17,10.5v107.77c0,4.13,1.39,7.61,4.14,10.36,2.74,2.75,6.22,4.14,10.35,4.14s7.83-1.4,10.5-4.17c2.65-2.74,3.99-6.22,3.99-10.33v-68.3c0-8.44,2.57-15.44,7.65-20.81,5.11-5.41,11.41-8.04,19.27-8.04s13.48,2.21,18.11,6.77c4.56,4.49,6.87,11.6,6.87,21.12v69.27c0,4.13,1.39,7.61,4.14,10.36,2.75,2.75,6.23,4.14,10.36,4.14s7.82-1.4,10.5-4.17c2.65-2.74,3.99-6.22,3.99-10.33v-68.3c0-8.44,2.54-15.45,7.54-20.82,5.03-5.4,11.29-8.03,19.14-8.03s13.48,2.21,18.11,6.77c4.56,4.49,6.87,11.6,6.87,21.12v69.27c0,4.13,1.39,7.61,4.14,10.36s6.23,4.14,10.36,4.14,7.83-1.4,10.51-4.17c2.65-2.74,3.99-6.22,3.99-10.33v-69.27c0-11.43-2.07-21.33-6.16-29.42-4.13-8.18-10-14.47-17.44-18.7Z"/><path class="cls-1" d="m716.66,64.58c-10.29-5.89-22.22-8.88-35.45-8.88s-25.41,2.99-35.7,8.88c-10.3,5.89-18.51,14.15-24.41,24.54-5.89,10.37-8.88,22.49-8.88,36.05s2.99,25.45,8.88,35.82c5.9,10.39,14.12,18.65,24.41,24.53,10.29,5.89,22.3,8.88,35.7,8.88s25.41-2.99,35.7-8.88c10.3-5.89,18.47-14.15,24.3-24.54,5.81-10.38,8.75-22.42,8.75-35.8s-2.99-25.67-8.88-36.05c-5.9-10.39-14.12-18.64-24.41-24.54Zm5.27,60.59c0,8.48-1.75,16.05-5.2,22.48-3.43,6.4-8.26,11.5-14.35,15.16-6.09,3.65-13.22,5.5-21.18,5.5s-15.1-1.85-21.18-5.5c-6.1-3.66-10.97-8.77-14.48-15.18-3.52-6.43-5.3-13.99-5.3-22.46s1.79-16.08,5.31-22.59c3.51-6.49,8.38-11.63,14.48-15.29,6.08-3.65,13.2-5.51,21.18-5.51s15.09,1.85,21.18,5.51c6.09,3.65,10.91,8.79,14.34,15.27,3.45,6.52,5.2,14.12,5.2,22.61Z"/><path class="cls-1" d="m882.03,65.84c-1.17-3.3-3.51-5.76-6.92-7.28-3.57-1.69-7.15-1.96-10.66-.82-3.52,1.14-6.17,3.36-7.94,6.71l-39.75,86.6-40.21-86.71c-1.71-3.23-4.27-5.45-7.62-6.59-3.4-1.18-6.78-.89-9.96.81-3.56,1.69-6.01,4.16-7.25,7.33-1.27,3.22-1.13,6.53.42,9.82l51.38,108.32c3.13,6.07,7.68,9.16,13.53,9.16,4.05,0,9.62-1.6,13.08-9.22l51.34-108.26c1.54-3.26,1.72-6.58.57-9.87Z"/></g></svg>