<svg width="24" height="24" viewBox="0 0 24 24" fill="none" xmlns="http://www.w3.org/2000/svg">
<rect width="24" height="24" rx="12" fill="#9FBAB5"/>
<path d="M9.32184 15.2733L6.42224 12.7897C6.266 12.6559 6.05409 12.5807 5.83313 12.5807C5.61217 12.5807 5.40026 12.6559 5.24402 12.7897C5.08778 12.9235 5 13.105 5 13.2943C5 13.388 5.02155 13.4808 5.06342 13.5674C5.10529 13.654 5.16665 13.7326 5.24402 13.7989L8.73691 16.7906C9.0628 17.0698 9.58924 17.0698 9.91513 16.7906L18.756 9.21819C18.9122 9.08437 19 8.90286 19 8.7136C19 8.52434 18.9122 8.34284 18.756 8.20901C18.5997 8.07518 18.3878 8 18.1669 8C17.9459 8 17.734 8.07518 17.5778 8.20901L9.32184 15.2733Z" fill="#4C4C4C"/>
</svg>
